<svg xmlns="http://www.w3.org/2000/svg" width="195" height="39.757"><path d="M10.917 0L0 30.216h29.7L40.614 0zM87.95 0l-1.664 4.606h38.516l-9.253 25.61h29.7l9.253-25.61h38.516L194.681 0z" fill="#ED6D00"/><path d="M74.504 12.8L79.131 0h-29.7l-6.29 17.411h38.517l-4.626 12.8h29.7l6.29-17.411z" fill="#ED6D00"/><path d="M10.976 34.438l-1.525 4.181-2.371-4.181H6.03l-1.857 5.1h.846l1.522-4.178 2.371 4.178h1.052l1.857-5.1zm3.555-.001l-.278.761h2.437l-1.579 4.335h.846l1.58-4.335h2.438l.277-.761zm8.433.001l-1.856 5.1h5.34l.277-.759h-4.5l.55-1.507h2.988l.276-.759h-2.987l.476-1.309h4.3l.278-.76zm12.261 5.094h-.982l-.672-1.942h-2.576l-.708 1.942h-.845l1.856-5.1h4.022a1.068 1.068 0 011.135 1.606 2.262 2.262 0 01-.753 1.042 2.439 2.439 0 01-1.122.464zm-.9-2.7a1.2 1.2 0 001.266-.787c.2-.564-.044-.844-.748-.844h-2.974l-.597 1.626zm9.831-1.198a3.9 3.9 0 00-2.1-.577 3.652 3.652 0 00-1.264.183.933.933 0 00-.6.508c-.083.225.006.389.264.492a3.492 3.492 0 00.98.156q1.031.069 1.354.111a2.155 2.155 0 011.244.472.886.886 0 01.1.977 2.261 2.261 0 01-1.176 1.252 4.9 4.9 0 01-2.225.445 3.555 3.555 0 01-2.725-.858l.69-.614a3.618 3.618 0 002.312.731 3.823 3.823 0 001.477-.246 1.183 1.183 0 00.709-.655q.178-.485-.382-.646a11.929 11.929 0 00-1.684-.176 4.109 4.109 0 01-1.644-.338c-.322-.2-.4-.527-.23-.992a2.074 2.074 0 011.086-1.134 4.531 4.531 0 012.05-.416 3.627 3.627 0 012.488.753zm9.031-.436h-2.439l-1.58 4.335h-.845l1.58-4.335h-2.438l.278-.761h5.72zm6.471 4.334h-5.341l1.858-5.1h5.142l-.277.76h-4.3l-.477 1.309h2.986l-.276.759h-2.988l-.548 1.507h4.494zm7.777 0h-4.783l1.857-5.1h.845l-1.578 4.336h3.936zm7.495 0h-4.783l1.856-5.1h.845l-1.578 4.336h3.936zm16.831 0h-.983l-.674-1.942h-2.575l-.708 1.942h-.845l1.856-5.1h4.029a1.068 1.068 0 011.134 1.606 2.262 2.262 0 01-.754 1.042 2.433 2.433 0 01-1.12.464zm-.9-2.7a1.2 1.2 0 001.266-.787c.206-.564-.043-.844-.75-.844h-2.972l-.6 1.632zm17.169-1.631h-2.439l-1.578 4.336h-.847l1.579-4.336h-2.436l.276-.759h5.72zm5.993 4.336h-5.341l1.857-5.1h5.143l-.277.76h-4.3l-.475 1.311h2.987l-.277.76h-2.987l-.549 1.508h4.494zm9.9-3.936l-.868.276a1.971 1.971 0 00-1.87-.823 3.539 3.539 0 00-1.92.541 2.726 2.726 0 00-1.169 1.38 1.308 1.308 0 00.151 1.4 2.021 2.021 0 001.585.532 3.87 3.87 0 002.433-.837l.581.4a5.363 5.363 0 01-1.583.926 5.175 5.175 0 01-1.761.286 2.661 2.661 0 01-2-.676 1.827 1.827 0 01-.284-2.027 3.893 3.893 0 011.77-2.013 4.78 4.78 0 012.481-.682 2.348 2.348 0 012.456 1.322m6.998 3.931h-.841l.823-2.267h-4.085l-.827 2.267h-.845l1.856-5.1h.845l-.753 2.068h4.086l.754-2.068h.845zm8.736 0h-1.051l-2.374-4.178-1.522 4.178h-.845l1.857-5.1h1.05l2.373 4.18 1.523-4.18h.845zm10.159-2.555a3.882 3.882 0 01-1.767 2.026 4.806 4.806 0 01-2.486.676 2.656 2.656 0 01-2.006-.682 1.809 1.809 0 01-.292-2.019 3.893 3.893 0 011.776-2.014 4.812 4.812 0 012.49-.689 2.606 2.606 0 011.983.689 1.814 1.814 0 01.3 2.014m-.88 0a1.28 1.28 0 00-.233-1.452 1.99 1.99 0 00-1.454-.477 3.566 3.566 0 00-1.932.544 2.739 2.739 0 00-1.172 1.384 1.316 1.316 0 00.145 1.4 1.975 1.975 0 001.555.531 3.527 3.527 0 001.931-.536 2.734 2.734 0 001.16-1.392m7.412 2.552h-4.783l1.857-5.1h.844l-1.578 4.337h3.938zm9.45-2.555a3.892 3.892 0 01-1.767 2.026 4.808 4.808 0 01-2.486.676 2.657 2.657 0 01-2.007-.682 1.808 1.808 0 01-.292-2.019 3.89 3.89 0 011.776-2.014 4.813 4.813 0 012.491-.689 2.607 2.607 0 011.983.689 1.817 1.817 0 01.3 2.014m-.88 0a1.282 1.282 0 00-.234-1.452 1.987 1.987 0 00-1.453-.477 3.561 3.561 0 00-1.932.544 2.735 2.735 0 00-1.173 1.384 1.314 1.314 0 00.147 1.4 1.968 1.968 0 001.554.531 3.529 3.529 0 001.931-.536 2.741 2.741 0 001.16-1.392m9.84-.074a3.991 3.991 0 01-1.623 2.008 4.711 4.711 0 01-2.642.765 2.646 2.646 0 01-2-.682 1.815 1.815 0 01-.285-2.019 3.9 3.9 0 011.768-2.014 4.911 4.911 0 012.556-.689 2.359 2.359 0 012.313 1.23l-.932.394a1.825 1.825 0 00-1.733-.85 3.552 3.552 0 00-1.8.477 2.774 2.774 0 00-1.29 1.452 1.311 1.311 0 00.148 1.392 1.933 1.933 0 001.539.535 3.169 3.169 0 002.674-1.321h-2.374l.276-.76h3.431zm2.565 2.626h-.845l1.856-5.1h.844zm8.287 0h-5.341l1.856-5.1h5.143l-.276.76h-4.3l-.476 1.308h2.987l-.275.76h-2.99l-.549 1.508h4.5zM81.609 34.438l-4.589 5.091h1.026l1.074-1.207h3.362l.191 1.207h.97l-.93-5.091zm-1.783 3.1l2.158-2.47.367 2.47zM1.858 34.534L0 39.633h.845l1.86-5.1zm192.419 1.201a3.887 3.887 0 00-2.1-.578 3.61 3.61 0 00-1.266.184.928.928 0 00-.6.507c-.082.224.006.389.264.493a3.5 3.5 0 00.979.154c.69.048 1.14.085 1.357.113a2.142 2.142 0 011.245.473.883.883 0 01.1.977 2.26 2.26 0 01-1.177 1.255 4.936 4.936 0 01-2.227.443 3.546 3.546 0 01-2.726-.86l.689-.612a3.623 3.623 0 002.313.733 3.852 3.852 0 001.48-.246 1.194 1.194 0 00.71-.655c.118-.325-.01-.54-.384-.65a12.359 12.359 0 00-1.683-.176 4.085 4.085 0 01-1.647-.338c-.323-.2-.4-.527-.231-.993a2.072 2.072 0 011.087-1.133 4.519 4.519 0 012.051-.417 3.62 3.62 0 012.49.754z"/></svg>